<mxfile host="app.diagrams.net" agent="Mozilla/5.0 (Windows NT 10.0; Win64; x64) AppleWebKit/537.36 (KHTML, like Gecko) Chrome/127.0.0.0 Safari/537.36" version="24.7.7">
  <diagram id="C5RBs43oDa-KdzZeNtuy" name="Page-1">
    <mxGraphModel dx="1434" dy="738" grid="0" gridSize="10" guides="1" tooltips="1" connect="1" arrows="1" fold="1" page="1" pageScale="1" pageWidth="827" pageHeight="1169" background="#ffffff" math="0" shadow="0">
      <root>
        <mxCell id="WIyWlLk6GJQsqaUBKTNV-0" />
        <mxCell id="WIyWlLk6GJQsqaUBKTNV-1" parent="WIyWlLk6GJQsqaUBKTNV-0" />
        <mxCell id="SqdrHe70hMCz6pKfbsu6-0" value="" style="rounded=0;whiteSpace=wrap;html=1;" parent="WIyWlLk6GJQsqaUBKTNV-1" vertex="1">
          <mxGeometry x="93" y="62" width="728" height="633" as="geometry" />
        </mxCell>
        <mxCell id="LvY1JkaJifsV1Zlp7NIa-3" value="&lt;i&gt;Field&lt;/i&gt;" style="swimlane;fontStyle=1;align=center;verticalAlign=top;childLayout=stackLayout;horizontal=1;startSize=26;horizontalStack=0;resizeParent=1;resizeParentMax=0;resizeLast=0;collapsible=1;marginBottom=0;whiteSpace=wrap;html=1;fontSize=14;" parent="WIyWlLk6GJQsqaUBKTNV-1" vertex="1">
          <mxGeometry x="320" y="80" width="160" height="52" as="geometry" />
        </mxCell>
        <mxCell id="LvY1JkaJifsV1Zlp7NIa-6" value="+ __str__()&lt;div&gt;&lt;br&gt;&lt;/div&gt;" style="text;strokeColor=none;fillColor=none;align=left;verticalAlign=top;spacingLeft=4;spacingRight=4;overflow=hidden;rotatable=0;points=[[0,0.5],[1,0.5]];portConstraint=eastwest;whiteSpace=wrap;html=1;fontSize=14;" parent="LvY1JkaJifsV1Zlp7NIa-3" vertex="1">
          <mxGeometry y="26" width="160" height="26" as="geometry" />
        </mxCell>
        <mxCell id="LvY1JkaJifsV1Zlp7NIa-25" style="edgeStyle=orthogonalEdgeStyle;rounded=0;orthogonalLoop=1;jettySize=auto;html=1;" parent="WIyWlLk6GJQsqaUBKTNV-1" source="LvY1JkaJifsV1Zlp7NIa-12" target="LvY1JkaJifsV1Zlp7NIa-3" edge="1">
          <mxGeometry relative="1" as="geometry" />
        </mxCell>
        <mxCell id="LvY1JkaJifsV1Zlp7NIa-12" value="Phone" style="swimlane;fontStyle=1;align=center;verticalAlign=top;childLayout=stackLayout;horizontal=1;startSize=26;horizontalStack=0;resizeParent=1;resizeParentMax=0;resizeLast=0;collapsible=1;marginBottom=0;whiteSpace=wrap;html=1;fontSize=14;" parent="WIyWlLk6GJQsqaUBKTNV-1" vertex="1">
          <mxGeometry x="320" y="240" width="160" height="96" as="geometry" />
        </mxCell>
        <mxCell id="LvY1JkaJifsV1Zlp7NIa-13" value="+ value: str" style="text;strokeColor=none;fillColor=none;align=left;verticalAlign=top;spacingLeft=4;spacingRight=4;overflow=hidden;rotatable=0;points=[[0,0.5],[1,0.5]];portConstraint=eastwest;whiteSpace=wrap;html=1;fontSize=14;" parent="LvY1JkaJifsV1Zlp7NIa-12" vertex="1">
          <mxGeometry y="26" width="160" height="44" as="geometry" />
        </mxCell>
        <mxCell id="H4jVIGQ5gie-wcbyqiWU-0" value="&lt;div&gt;+ __str__(): str&lt;br&gt;&lt;/div&gt;" style="text;strokeColor=default;fillColor=none;align=left;verticalAlign=top;spacingLeft=4;spacingRight=4;overflow=hidden;rotatable=0;points=[[0,0.5],[1,0.5]];portConstraint=eastwest;whiteSpace=wrap;html=1;fontSize=14;" vertex="1" parent="LvY1JkaJifsV1Zlp7NIa-12">
          <mxGeometry y="70" width="160" height="26" as="geometry" />
        </mxCell>
        <mxCell id="LvY1JkaJifsV1Zlp7NIa-24" style="edgeStyle=orthogonalEdgeStyle;rounded=0;orthogonalLoop=1;jettySize=auto;html=1;" parent="WIyWlLk6GJQsqaUBKTNV-1" source="LvY1JkaJifsV1Zlp7NIa-16" target="LvY1JkaJifsV1Zlp7NIa-3" edge="1">
          <mxGeometry relative="1" as="geometry">
            <mxPoint x="200" y="210" as="targetPoint" />
            <Array as="points">
              <mxPoint x="200" y="200" />
              <mxPoint x="400" y="200" />
            </Array>
          </mxGeometry>
        </mxCell>
        <mxCell id="LvY1JkaJifsV1Zlp7NIa-16" value="Name" style="swimlane;fontStyle=1;align=center;verticalAlign=top;childLayout=stackLayout;horizontal=1;startSize=26;horizontalStack=0;resizeParent=1;resizeParentMax=0;resizeLast=0;collapsible=1;marginBottom=0;whiteSpace=wrap;html=1;fontSize=14;" parent="WIyWlLk6GJQsqaUBKTNV-1" vertex="1">
          <mxGeometry x="120" y="240" width="160" height="96" as="geometry" />
        </mxCell>
        <mxCell id="LvY1JkaJifsV1Zlp7NIa-17" value="+ value: str" style="text;strokeColor=none;fillColor=none;align=left;verticalAlign=top;spacingLeft=4;spacingRight=4;overflow=hidden;rotatable=0;points=[[0,0.5],[1,0.5]];portConstraint=eastwest;whiteSpace=wrap;html=1;fontSize=14;" parent="LvY1JkaJifsV1Zlp7NIa-16" vertex="1">
          <mxGeometry y="26" width="160" height="44" as="geometry" />
        </mxCell>
        <mxCell id="H4jVIGQ5gie-wcbyqiWU-1" value="&lt;div&gt;+ __str__(): str&lt;br&gt;&lt;/div&gt;" style="text;strokeColor=default;fillColor=none;align=left;verticalAlign=top;spacingLeft=4;spacingRight=4;overflow=hidden;rotatable=0;points=[[0,0.5],[1,0.5]];portConstraint=eastwest;whiteSpace=wrap;html=1;fontSize=14;" vertex="1" parent="LvY1JkaJifsV1Zlp7NIa-16">
          <mxGeometry y="70" width="160" height="26" as="geometry" />
        </mxCell>
        <mxCell id="LvY1JkaJifsV1Zlp7NIa-26" style="edgeStyle=orthogonalEdgeStyle;rounded=0;orthogonalLoop=1;jettySize=auto;html=1;" parent="WIyWlLk6GJQsqaUBKTNV-1" source="LvY1JkaJifsV1Zlp7NIa-20" target="LvY1JkaJifsV1Zlp7NIa-3" edge="1">
          <mxGeometry relative="1" as="geometry">
            <Array as="points">
              <mxPoint x="600" y="200" />
              <mxPoint x="400" y="200" />
            </Array>
          </mxGeometry>
        </mxCell>
        <mxCell id="LvY1JkaJifsV1Zlp7NIa-20" value="Birthday" style="swimlane;fontStyle=1;align=center;verticalAlign=top;childLayout=stackLayout;horizontal=1;startSize=26;horizontalStack=0;resizeParent=1;resizeParentMax=0;resizeLast=0;collapsible=1;marginBottom=0;whiteSpace=wrap;html=1;fontSize=14;" parent="WIyWlLk6GJQsqaUBKTNV-1" vertex="1">
          <mxGeometry x="520" y="240" width="160" height="96" as="geometry" />
        </mxCell>
        <mxCell id="LvY1JkaJifsV1Zlp7NIa-21" value="+ value: str" style="text;strokeColor=none;fillColor=none;align=left;verticalAlign=top;spacingLeft=4;spacingRight=4;overflow=hidden;rotatable=0;points=[[0,0.5],[1,0.5]];portConstraint=eastwest;whiteSpace=wrap;html=1;fontSize=14;" parent="LvY1JkaJifsV1Zlp7NIa-20" vertex="1">
          <mxGeometry y="26" width="160" height="44" as="geometry" />
        </mxCell>
        <mxCell id="H4jVIGQ5gie-wcbyqiWU-2" value="+ __str__(): str" style="text;strokeColor=default;fillColor=none;align=left;verticalAlign=top;spacingLeft=4;spacingRight=4;overflow=hidden;rotatable=0;points=[[0,0.5],[1,0.5]];portConstraint=eastwest;whiteSpace=wrap;html=1;fontSize=14;" vertex="1" parent="LvY1JkaJifsV1Zlp7NIa-20">
          <mxGeometry y="70" width="160" height="26" as="geometry" />
        </mxCell>
        <mxCell id="LvY1JkaJifsV1Zlp7NIa-36" style="edgeStyle=orthogonalEdgeStyle;rounded=0;orthogonalLoop=1;jettySize=auto;html=1;entryX=0.5;entryY=1;entryDx=0;entryDy=0;" parent="WIyWlLk6GJQsqaUBKTNV-1" source="LvY1JkaJifsV1Zlp7NIa-29" target="LvY1JkaJifsV1Zlp7NIa-20" edge="1">
          <mxGeometry relative="1" as="geometry">
            <Array as="points">
              <mxPoint x="310" y="360" />
              <mxPoint x="600" y="360" />
            </Array>
          </mxGeometry>
        </mxCell>
        <mxCell id="LvY1JkaJifsV1Zlp7NIa-37" style="edgeStyle=orthogonalEdgeStyle;rounded=0;orthogonalLoop=1;jettySize=auto;html=1;entryX=0.5;entryY=1;entryDx=0;entryDy=0;" parent="WIyWlLk6GJQsqaUBKTNV-1" source="LvY1JkaJifsV1Zlp7NIa-29" target="LvY1JkaJifsV1Zlp7NIa-16" edge="1">
          <mxGeometry relative="1" as="geometry">
            <Array as="points">
              <mxPoint x="310" y="360" />
              <mxPoint x="200" y="360" />
            </Array>
          </mxGeometry>
        </mxCell>
        <mxCell id="LvY1JkaJifsV1Zlp7NIa-29" value="Record" style="swimlane;fontStyle=1;align=center;verticalAlign=top;childLayout=stackLayout;horizontal=1;startSize=26;horizontalStack=0;resizeParent=1;resizeParentMax=0;resizeLast=0;collapsible=1;marginBottom=0;whiteSpace=wrap;html=1;fontSize=14;" parent="WIyWlLk6GJQsqaUBKTNV-1" vertex="1">
          <mxGeometry x="190" y="440" width="240" height="220" as="geometry" />
        </mxCell>
        <mxCell id="LvY1JkaJifsV1Zlp7NIa-30" value="+ name: Name&lt;div style=&quot;font-size: 14px;&quot;&gt;+ phones: list(Phone)&lt;/div&gt;&lt;div style=&quot;font-size: 14px;&quot;&gt;+ birthday: Birthday&lt;/div&gt;" style="text;strokeColor=none;fillColor=none;align=left;verticalAlign=top;spacingLeft=4;spacingRight=4;overflow=hidden;rotatable=0;points=[[0,0.5],[1,0.5]];portConstraint=eastwest;whiteSpace=wrap;html=1;fontSize=14;" parent="LvY1JkaJifsV1Zlp7NIa-29" vertex="1">
          <mxGeometry y="26" width="240" height="54" as="geometry" />
        </mxCell>
        <mxCell id="LvY1JkaJifsV1Zlp7NIa-31" value="" style="line;strokeWidth=1;fillColor=none;align=left;verticalAlign=middle;spacingTop=-1;spacingLeft=3;spacingRight=3;rotatable=0;labelPosition=right;points=[];portConstraint=eastwest;strokeColor=inherit;" parent="LvY1JkaJifsV1Zlp7NIa-29" vertex="1">
          <mxGeometry y="80" width="240" height="8" as="geometry" />
        </mxCell>
        <mxCell id="LvY1JkaJifsV1Zlp7NIa-32" value="+ add_phone(str): None&lt;div style=&quot;font-size: 14px;&quot;&gt;+ remove_phone(str): None&lt;/div&gt;&lt;div style=&quot;font-size: 14px;&quot;&gt;+ edit_phone(str, str): Boolean&lt;/div&gt;&lt;div style=&quot;font-size: 14px;&quot;&gt;+ find_phone(str): Phone&lt;/div&gt;&lt;div style=&quot;font-size: 14px;&quot;&gt;+ add_birthday(str): None&lt;/div&gt;&lt;div style=&quot;font-size: 14px;&quot;&gt;+ show_birthday(): None&lt;/div&gt;&lt;div style=&quot;font-size: 14px;&quot;&gt;+ __str__():&amp;nbsp;&lt;span style=&quot;font-size: 14px; background-color: initial;&quot;&gt;str&lt;/span&gt;&lt;/div&gt;" style="text;strokeColor=none;fillColor=none;align=left;verticalAlign=top;spacingLeft=4;spacingRight=4;overflow=hidden;rotatable=0;points=[[0,0.5],[1,0.5]];portConstraint=eastwest;whiteSpace=wrap;html=1;fontSize=14;" parent="LvY1JkaJifsV1Zlp7NIa-29" vertex="1">
          <mxGeometry y="88" width="240" height="132" as="geometry" />
        </mxCell>
        <mxCell id="LvY1JkaJifsV1Zlp7NIa-34" value="" style="endArrow=diamondThin;endFill=1;endSize=24;html=1;rounded=0;entryX=0.5;entryY=0;entryDx=0;entryDy=0;exitX=0.5;exitY=1;exitDx=0;exitDy=0;" parent="WIyWlLk6GJQsqaUBKTNV-1" source="LvY1JkaJifsV1Zlp7NIa-12" target="LvY1JkaJifsV1Zlp7NIa-29" edge="1">
          <mxGeometry width="160" relative="1" as="geometry">
            <mxPoint x="280" y="360" as="sourcePoint" />
            <mxPoint x="440" y="360" as="targetPoint" />
            <Array as="points">
              <mxPoint x="400" y="340" />
              <mxPoint x="400" y="360" />
              <mxPoint x="310" y="360" />
            </Array>
          </mxGeometry>
        </mxCell>
        <mxCell id="LvY1JkaJifsV1Zlp7NIa-53" style="edgeStyle=orthogonalEdgeStyle;rounded=0;orthogonalLoop=1;jettySize=auto;html=1;entryX=0.5;entryY=0;entryDx=0;entryDy=0;" parent="WIyWlLk6GJQsqaUBKTNV-1" source="LvY1JkaJifsV1Zlp7NIa-38" target="LvY1JkaJifsV1Zlp7NIa-49" edge="1">
          <mxGeometry relative="1" as="geometry" />
        </mxCell>
        <mxCell id="LvY1JkaJifsV1Zlp7NIa-38" value="AddressBook" style="swimlane;fontStyle=1;align=center;verticalAlign=top;childLayout=stackLayout;horizontal=1;startSize=26;horizontalStack=0;resizeParent=1;resizeParentMax=0;resizeLast=0;collapsible=1;marginBottom=0;whiteSpace=wrap;html=1;fontSize=14;" parent="WIyWlLk6GJQsqaUBKTNV-1" vertex="1">
          <mxGeometry x="560" y="440" width="240" height="130" as="geometry" />
        </mxCell>
        <mxCell id="LvY1JkaJifsV1Zlp7NIa-40" value="" style="line;strokeWidth=1;fillColor=none;align=left;verticalAlign=middle;spacingTop=-1;spacingLeft=3;spacingRight=3;rotatable=0;labelPosition=right;points=[];portConstraint=eastwest;strokeColor=inherit;" parent="LvY1JkaJifsV1Zlp7NIa-38" vertex="1">
          <mxGeometry y="26" width="240" height="8" as="geometry" />
        </mxCell>
        <mxCell id="LvY1JkaJifsV1Zlp7NIa-41" value="+ add_record(Record): None&lt;div style=&quot;font-size: 14px;&quot;&gt;+ find(str): Record&lt;/div&gt;&lt;div style=&quot;font-size: 14px;&quot;&gt;+ delete(str): None&lt;/div&gt;&lt;div style=&quot;font-size: 14px;&quot;&gt;+ birthdays(): str&lt;/div&gt;&lt;div style=&quot;font-size: 14px;&quot;&gt;+ __str__(): str&lt;/div&gt;" style="text;strokeColor=none;fillColor=none;align=left;verticalAlign=top;spacingLeft=4;spacingRight=4;overflow=hidden;rotatable=0;points=[[0,0.5],[1,0.5]];portConstraint=eastwest;whiteSpace=wrap;html=1;fontSize=14;" parent="LvY1JkaJifsV1Zlp7NIa-38" vertex="1">
          <mxGeometry y="34" width="240" height="96" as="geometry" />
        </mxCell>
        <mxCell id="LvY1JkaJifsV1Zlp7NIa-44" value="" style="endArrow=diamondThin;endFill=1;endSize=24;html=1;rounded=0;" parent="WIyWlLk6GJQsqaUBKTNV-1" edge="1">
          <mxGeometry width="160" relative="1" as="geometry">
            <mxPoint x="430" y="504.8" as="sourcePoint" />
            <mxPoint x="560" y="504.8" as="targetPoint" />
          </mxGeometry>
        </mxCell>
        <mxCell id="LvY1JkaJifsV1Zlp7NIa-49" value="UserDict" style="swimlane;fontStyle=1;align=center;verticalAlign=top;childLayout=stackLayout;horizontal=1;startSize=26;horizontalStack=0;resizeParent=1;resizeParentMax=0;resizeLast=0;collapsible=1;marginBottom=0;whiteSpace=wrap;html=1;fontSize=14;" parent="WIyWlLk6GJQsqaUBKTNV-1" vertex="1">
          <mxGeometry x="600" y="620" width="160" height="34" as="geometry" />
        </mxCell>
        <mxCell id="LvY1JkaJifsV1Zlp7NIa-51" value="" style="line;strokeWidth=1;fillColor=none;align=left;verticalAlign=middle;spacingTop=-1;spacingLeft=3;spacingRight=3;rotatable=0;labelPosition=right;points=[];portConstraint=eastwest;strokeColor=inherit;" parent="LvY1JkaJifsV1Zlp7NIa-49" vertex="1">
          <mxGeometry y="26" width="160" height="8" as="geometry" />
        </mxCell>
        <mxCell id="LvY1JkaJifsV1Zlp7NIa-55" style="edgeStyle=orthogonalEdgeStyle;rounded=0;orthogonalLoop=1;jettySize=auto;html=1;entryX=1.007;entryY=0.722;entryDx=0;entryDy=0;entryPerimeter=0;" parent="WIyWlLk6GJQsqaUBKTNV-1" source="LvY1JkaJifsV1Zlp7NIa-38" target="LvY1JkaJifsV1Zlp7NIa-30" edge="1">
          <mxGeometry relative="1" as="geometry" />
        </mxCell>
        <mxCell id="H4jVIGQ5gie-wcbyqiWU-3" style="edgeStyle=orthogonalEdgeStyle;rounded=0;orthogonalLoop=1;jettySize=auto;html=1;entryX=0.5;entryY=1.038;entryDx=0;entryDy=0;entryPerimeter=0;" edge="1" parent="WIyWlLk6GJQsqaUBKTNV-1" source="LvY1JkaJifsV1Zlp7NIa-29" target="H4jVIGQ5gie-wcbyqiWU-0">
          <mxGeometry relative="1" as="geometry">
            <Array as="points">
              <mxPoint x="310" y="360" />
              <mxPoint x="400" y="360" />
            </Array>
          </mxGeometry>
        </mxCell>
      </root>
    </mxGraphModel>
  </diagram>
</mxfile>
